<?xml version="1.0" standalone="no"?>
<!DOCTYPE svg PUBLIC "-//W3C//DTD SVG 20010904//EN"
 "http://www.w3.org/TR/2001/REC-SVG-20010904/DTD/svg10.dtd">
<svg version="1.0" xmlns="http://www.w3.org/2000/svg"
 width="3886.000000pt" height="2774.000000pt" viewBox="0 0 3886.000000 2774.000000"
 preserveAspectRatio="xMidYMid meet">

<g transform="translate(0.000000,2774.000000) scale(0.100000,-0.100000)"
fill="#000000" stroke="none">
<path d="M30420 27729 c-162 -16 -292 -50 -663 -170 -2274 -738 -3355 -1093
-3381 -1109 -50 -31 -113 -101 -143 -160 -24 -48 -28 -66 -28 -145 0 -77 4
-98 28 -149 34 -72 136 -175 227 -229 424 -247 1316 -304 2530 -161 225 26
505 65 775 108 88 14 331 44 540 66 368 40 593 64 1065 115 124 13 331 36 460
49 1358 146 2340 256 2382 267 47 12 97 54 114 96 34 81 2 180 -71 220 -36 19
-2779 1004 -3089 1109 -258 87 -501 117 -746 93z"/>
<path d="M38742 25630 c-603 -403 -1333 -691 -2052 -809 -368 -61 -389 -62
-1435 -71 -533 -4 -1368 -9 -1855 -9 -976 -1 -935 1 -1075 -65 -135 -64 -286
-196 -430 -376 -66 -82 -268 -380 -262 -386 2 -2 48 14 103 36 313 129 602
198 910 220 418 29 834 -55 1310 -265 177 -79 284 -133 593 -302 719 -393 986
-506 1347 -567 234 -40 705 -45 934 -11 691 104 1227 524 1598 1252 205 403
339 845 426 1401 2 12 0 22 -3 21 -3 0 -52 -31 -109 -69z"/>
<path d="M21688 18310 c-145 -25 -293 -96 -414 -200 -182 -156 -258 -405 -209
-683 58 -330 299 -643 608 -787 l65 -31 248 163 248 163 -85 7 c-96 7 -149 19
-233 55 -277 116 -476 409 -476 700 1 259 161 477 395 538 74 19 233 20 305 1
30 -8 56 -13 58 -11 2 1 -30 16 -70 33 -129 54 -305 74 -440 52z"/>
<path d="M21853 18185 c-86 -24 -154 -64 -218 -129 -123 -122 -168 -292 -130
-484 32 -157 133 -320 262 -423 131 -104 263 -152 418 -153 359 -1 577 332
460 703 -67 209 -248 395 -457 468 -92 32 -255 41 -335 18z"/>
<path d="M19230 16284 c-894 -799 -1648 -1481 -1677 -1515 -111 -131 -172
-290 -180 -466 -5 -104 -4 -113 13 -119 113 -36 176 -97 244 -238 46 -94 110
-302 110 -358 0 -10 5 -16 10 -13 6 3 10 23 10 44 0 21 9 72 20 114 58 230
183 401 390 538 47 31 492 323 990 649 498 326 984 645 1080 708 96 63 211
138 255 167 505 330 912 599 923 609 10 10 -5 24 -75 71 -107 72 -249 213
-321 318 -73 106 -147 266 -179 384 -23 86 -26 117 -26 258 -1 134 3 171 20
230 12 38 21 70 20 71 -1 1 -733 -652 -1627 -1452z"/>
<path d="M22728 17533 c8 -164 -41 -310 -139 -417 l-49 -54 82 5 c46 2 88 6
94 8 6 2 19 32 30 67 27 92 26 338 -2 423 l-20 60 4 -92z"/>
<path d="M22550 17005 c-147 -30 -197 -55 -454 -223 -155 -102 -173 -117 -227
-189 -110 -146 -153 -287 -152 -493 0 -112 5 -152 26 -233 52 -198 158 -377
305 -519 103 -99 154 -135 264 -188 162 -78 329 -106 484 -80 76 12 82 15 308
164 183 121 246 169 302 228 89 94 144 185 185 308 28 83 32 111 35 220 2 106
2 115 -6 58 -32 -251 -200 -445 -427 -493 -88 -19 -146 -19 -241 1 -356 73
-642 434 -642 809 0 278 155 498 403 570 72 21 221 21 297 1 78 -22 73 -13
-12 18 -153 55 -308 69 -448 41z"/>
<path d="M22729 16896 c-250 -70 -403 -333 -359 -621 51 -337 321 -621 630
-664 268 -37 487 117 556 389 22 88 15 257 -16 355 -82 263 -299 478 -545 540
-71 18 -202 18 -266 1z"/>
<path d="M19987 15399 c-863 -565 -1638 -1073 -1722 -1128 -172 -114 -254
-188 -324 -295 -77 -119 -131 -281 -131 -397 l0 -42 -43 6 c-24 4 -48 2 -53
-3 -5 -4 -25 -11 -44 -14 -19 -3 -79 -19 -133 -35 l-98 -29 -65 49 c-81 61
-101 72 -189 98 -123 36 -187 36 -420 2 -299 -45 -275 -38 -292 -79 -22 -52
-43 -187 -43 -274 l0 -77 -52 -14 c-29 -9 -69 -18 -88 -22 -59 -12 -91 -34
-110 -77 -18 -40 -18 -42 6 -129 13 -49 33 -108 45 -130 27 -53 99 -130 144
-155 19 -10 35 -22 35 -26 0 -5 6 -8 14 -8 34 0 23 -26 -55 -128 -1722 -2236
-3016 -3767 -3964 -4690 -110 -107 -191 -191 -180 -187 336 128 669 210 1020
251 208 25 652 25 860 0 297 -35 547 -90 824 -182 l163 -54 37 31 c229 199
726 691 946 939 461 517 715 886 980 1425 116 235 335 727 335 751 0 5 -21 22
-48 39 -26 16 -88 70 -138 120 -199 198 -385 546 -552 1034 -41 122 -46 146
-47 226 0 79 4 97 28 146 34 69 95 128 177 169 55 28 64 30 78 17 20 -21 11
-31 -59 -68 -72 -39 -132 -103 -153 -166 -29 -85 -22 -142 44 -336 158 -464
335 -792 533 -991 73 -72 155 -132 166 -120 5 5 22 43 39 86 188 459 384 835
568 1090 l84 117 -81 178 c-108 237 -129 294 -129 354 0 64 21 114 70 164 l40
41 -65 97 c-36 53 -65 100 -65 104 0 8 40 37 44 31 64 -104 135 -201 155 -211
16 -8 25 -20 23 -30 -7 -44 126 -163 260 -233 130 -67 216 -87 373 -87 217 -1
303 32 606 231 219 144 737 484 934 612 1403 917 2174 1425 2167 1431 -4 3
-38 11 -75 18 -254 44 -517 222 -688 464 -231 327 -291 751 -148 1056 16 35
28 65 27 66 -2 2 -709 -460 -1571 -1026z m-3545 -2323 c7 -54 37 -185 73 -316
14 -52 14 -57 -4 -80 -32 -42 -95 -23 -178 53 -55 50 -85 109 -112 215 -22 83
-19 120 11 138 19 12 171 53 188 51 10 -2 17 -20 22 -61z"/>
<path d="M25087 16119 c-91 -22 -175 -89 -218 -177 -23 -45 -24 -57 -24 -247
0 -133 -4 -209 -12 -227 -43 -97 -36 -269 15 -380 16 -35 61 -103 101 -151 81
-101 105 -142 126 -224 28 -108 13 -234 -41 -333 -14 -25 -52 -77 -85 -115
-112 -130 -150 -223 -150 -369 0 -146 40 -251 134 -353 104 -112 148 -214 149
-343 2 -136 -39 -233 -146 -349 -206 -226 -208 -507 -4 -738 109 -124 154
-263 130 -404 -17 -96 -53 -169 -129 -256 -35 -40 -74 -88 -87 -107 l-24 -35
-11 46 c-17 65 -44 113 -88 154 -53 51 -97 71 -171 77 l-64 5 4 -174 c3 -156
6 -179 27 -221 41 -85 120 -148 208 -166 35 -7 37 -9 50 -72 17 -88 62 -172
135 -255 77 -89 126 -190 134 -276 l6 -64 -107 3 c-262 8 -536 -47 -763 -153
-199 -94 -202 -126 -24 -212 154 -74 378 -135 546 -150 42 -3 76 -7 76 -9 0
-2 -7 -29 -15 -61 -44 -168 4 -351 130 -492 101 -113 136 -199 137 -331 1
-140 -38 -230 -154 -357 -196 -216 -195 -503 2 -728 124 -141 165 -285 125
-438 -23 -90 -52 -140 -132 -234 -126 -146 -173 -282 -152 -442 14 -117 47
-179 189 -356 67 -83 85 -141 85 -275 0 -110 -1 -118 -34 -188 -19 -39 -39
-76 -45 -81 -8 -6 -238 20 -252 28 -1 1 -18 28 -38 60 -45 74 -140 169 -226
226 -101 67 -130 106 -130 174 0 60 14 87 88 166 225 241 177 505 -129 715
-71 49 -95 71 -110 104 -36 79 -19 135 66 228 98 105 128 202 99 314 -29 111
-92 186 -236 278 -96 61 -117 86 -125 145 -9 67 4 105 57 166 170 193 157 424
-33 601 -71 65 -209 135 -317 159 -96 21 -264 21 -360 0 -252 -56 -448 -239
-466 -436 -11 -117 24 -217 115 -323 54 -63 67 -101 58 -166 -7 -57 -39 -95
-120 -142 -131 -77 -247 -219 -247 -302 0 -33 -15 -33 -36 0 -22 33 -127 107
-190 134 -194 84 -530 92 -904 24 -839 -154 -1942 -653 -2962 -1340 -304 -204
-632 -452 -878 -664 -150 -128 -400 -362 -400 -374 0 -6 4 -18 10 -26 7 -11
33 10 127 101 578 563 1460 1172 2343 1618 1309 662 2461 873 2800 515 154
-163 147 -393 -22 -726 -531 -1048 -2523 -2488 -4223 -3053 -200 -67 -449
-135 -597 -165 l-56 -11 -6 -97 c-26 -411 -76 -697 -183 -1042 l-45 -144 34
-28 c64 -54 160 -101 257 -126 122 -30 362 -40 537 -23 822 84 1998 578 3104
1303 l104 69 20 -28 c11 -15 56 -66 101 -112 583 -605 2458 -1215 4260 -1385
343 -33 514 -40 890 -40 299 0 432 4 570 18 419 41 710 112 916 223 l66 35
116 -40 c834 -293 1764 -169 2513 335 229 154 512 416 683 632 383 483 617
1041 708 1691 26 182 25 691 0 880 -161 1185 -852 2144 -1870 2590 -430 188
-881 290 -1293 290 -770 0 -1467 -237 -2054 -701 -205 -161 -462 -431 -616
-646 -362 -505 -577 -1119 -601 -1710 -3 -84 -9 -153 -12 -153 -22 -1 -421 86
-421 92 0 4 16 29 37 55 87 114 121 265 92 405 -17 82 -62 166 -135 253 -116
139 -159 271 -135 418 16 100 56 179 139 272 88 99 129 177 150 287 l16 86 44
6 c89 12 179 70 227 147 44 69 55 130 55 307 l0 165 -58 -5 c-108 -10 -214
-84 -263 -184 -18 -38 -25 -72 -29 -146 -3 -53 -8 -99 -11 -102 -3 -3 -18 17
-34 45 -15 28 -53 81 -85 118 -102 119 -140 211 -140 341 0 132 42 235 144
348 113 124 156 227 156 366 0 143 -39 236 -158 375 -30 36 -69 95 -86 131
-30 62 -31 70 -31 195 1 118 3 135 26 185 26 55 26 55 95 73 38 10 119 38 180
62 l110 45 47 -44 c34 -33 63 -50 113 -65 70 -22 129 -27 138 -12 8 13 -63
101 -123 151 -28 24 -51 47 -51 51 0 5 35 42 78 83 42 41 85 88 95 105 17 28
17 32 2 37 -28 11 -120 -3 -173 -26 -29 -13 -70 -42 -93 -67 l-42 -45 -58 28
-59 27 7 86 c10 146 -33 265 -142 394 -77 91 -92 116 -116 185 -28 81 -34 174
-16 258 21 97 52 155 135 247 84 95 127 175 149 282 20 102 8 194 -40 298 -41
87 -109 168 -127 150 -10 -9 -5 -21 23 -55 96 -119 131 -282 92 -433 -22 -81
-54 -137 -133 -227 -38 -42 -80 -99 -95 -125 -62 -115 -74 -263 -32 -389 29
-87 57 -134 124 -208 97 -107 131 -196 131 -343 0 -76 -3 -93 -15 -93 -8 0
-53 11 -100 25 -73 21 -166 40 -292 61 -29 4 -33 8 -33 37 0 94 -54 222 -130
312 -134 157 -171 263 -149 435 12 99 52 178 135 271 76 85 106 133 134 213
61 179 21 347 -124 519 -37 43 -75 96 -86 117 -68 132 -65 319 6 449 13 25 53
79 89 119 77 86 111 142 136 223 24 76 25 205 3 280 -22 74 -83 182 -143 253
-167 197 -160 438 19 640 113 129 153 227 153 376 0 148 -38 243 -151 372
-120 139 -160 292 -116 449 15 54 18 58 53 64 102 19 199 95 244 193 19 41 22
63 20 177 0 71 -4 163 -8 202 -7 71 -7 73 -33 72 -15 -1 -44 -5 -65 -10z m190
-6271 c-3 -13 -13 -50 -21 -83 -42 -161 4 -319 135 -470 71 -82 104 -141 124
-227 19 -80 19 -146 0 -227 -21 -87 -54 -145 -136 -237 -83 -93 -124 -173
-146 -282 -15 -75 -15 -89 -1 -161 21 -105 64 -189 144 -280 99 -114 133 -201
134 -336 0 -77 -19 -164 -49 -223 -11 -21 -52 -76 -93 -124 -118 -138 -158
-232 -158 -373 0 -128 42 -229 146 -352 36 -43 79 -107 96 -141 79 -171 39
-413 -87 -532 l-25 -23 -181 31 c-100 17 -184 33 -186 36 -3 2 9 33 25 68 53
113 65 228 36 342 -20 80 -63 155 -137 241 -109 126 -150 256 -128 403 15 103
55 182 134 271 87 96 123 161 149 267 20 78 21 94 10 167 -15 105 -61 200
-141 296 -81 96 -107 142 -125 221 -29 124 -15 250 41 352 14 26 54 79 89 117
112 125 155 226 155 366 0 137 -39 231 -147 360 -96 115 -126 184 -132 311 -3
74 0 115 12 156 l16 55 132 7 c73 4 158 11 188 15 30 5 72 9 94 10 35 1 38 -1
33 -21z m4425 -1097 c867 -140 1617 -667 2087 -1465 576 -980 609 -2249 85
-3273 -457 -891 -1299 -1507 -2229 -1628 -332 -43 -685 -24 -1012 55 -98 23
-333 99 -333 107 0 3 19 26 43 52 116 130 242 443 307 762 78 380 79 820 2
982 -111 237 -471 506 -1002 748 -363 165 -742 300 -1258 449 l-74 21 7 117
c16 295 49 528 105 748 270 1050 1002 1873 1960 2205 198 69 398 112 660 143
19 2 145 3 280 1 187 -3 275 -8 372 -24z m-5847 -2832 c99 -5 254 -16 345 -24
183 -17 651 -74 662 -81 4 -3 -13 -30 -39 -62 -51 -63 -100 -158 -109 -213
l-6 -36 -242 5 c-319 6 -462 -13 -523 -70 -65 -61 12 -146 221 -243 656 -306
2104 -505 2359 -323 74 53 2 142 -195 237 -212 103 -616 225 -970 293 -114 21
-118 23 -118 48 0 73 57 215 105 260 l22 21 154 -31 c1007 -203 1963 -532
2534 -873 370 -221 587 -456 588 -639 1 -200 -203 -353 -603 -452 -492 -122
-1287 -139 -2140 -46 -1240 136 -2500 469 -3345 885 -336 165 -527 289 -694
449 -250 242 -269 452 -57 613 309 234 1049 336 2051 282z m1267 -145 c84 -14
159 -27 165 -29 9 -3 4 -19 -17 -52 -39 -62 -68 -141 -76 -206 l-6 -53 -147
22 c-80 12 -177 25 -215 29 l-68 7 5 34 c3 19 17 58 30 87 30 65 132 187 157
187 10 0 87 -12 172 -26z"/>
<path d="M29145 6799 c-480 -60 -872 -443 -980 -959 -23 -106 -30 -306 -16
-415 69 -517 404 -914 876 -1036 74 -19 116 -23 240 -23 158 -1 215 8 345 52
329 109 603 392 720 741 45 135 61 224 67 372 8 201 -21 374 -94 549 -166 402
-509 669 -923 720 -96 11 -135 11 -235 -1z m308 -54 c174 -30 283 -86 405
-205 109 -106 174 -197 243 -335 130 -264 160 -559 84 -843 -144 -539 -637
-909 -1188 -890 -111 3 -113 4 -199 50 -478 255 -716 831 -573 1383 69 266
241 520 451 665 130 90 311 164 449 183 73 10 250 6 328 -8z"/>
<path d="M2381 15576 c-9 -10 -3 -24 29 -62 57 -68 97 -155 117 -249 35 -173
-18 -334 -163 -495 -42 -47 -89 -110 -104 -140 l-27 -54 -5 94 c-6 120 -31
183 -99 244 -59 53 -121 76 -206 76 l-63 0 0 -200 c0 -233 10 -276 82 -349 57
-57 110 -83 184 -89 l62 -5 7 -55 c17 -133 68 -237 176 -358 70 -78 104 -143
129 -240 25 -97 25 -161 0 -258 -26 -101 -59 -161 -139 -249 -122 -134 -175
-244 -187 -392 -12 -159 43 -310 162 -446 110 -124 151 -215 161 -354 10 -155
-42 -287 -171 -432 -124 -140 -170 -251 -170 -413 0 -165 43 -267 178 -423 42
-48 85 -105 95 -125 32 -62 51 -154 51 -244 0 -159 -44 -263 -169 -402 -118
-131 -171 -257 -171 -408 0 -147 48 -264 163 -401 124 -147 157 -230 157 -392
0 -155 -41 -261 -144 -373 -73 -80 -120 -146 -147 -208 -11 -24 -24 -42 -30
-39 -5 4 -9 70 -9 149 0 139 -1 144 -31 204 -52 105 -132 156 -267 169 l-63 6
3 -214 c3 -209 4 -215 30 -264 53 -101 139 -157 261 -170 l57 -6 0 -68 c0 -77
19 -160 57 -244 14 -31 24 -59 22 -62 -3 -2 -65 -40 -139 -85 -74 -45 -183
-113 -241 -151 -58 -38 -109 -69 -113 -69 -13 0 -247 -163 -401 -278 -713
-535 -1177 -1067 -1281 -1469 -41 -159 -36 -191 98 -588 137 -404 469 -957
709 -1179 124 -115 218 -158 419 -191 126 -22 475 -16 640 10 669 103 1401
355 2200 755 140 70 316 162 390 203 l135 75 12 -112 c22 -192 78 -384 144
-487 55 -87 221 -202 413 -287 857 -377 2667 -539 4221 -376 180 19 345 41
352 47 2 3 -1 48 -6 101 -36 324 -17 785 47 1119 6 27 6 47 1 47 -5 0 -100
-11 -212 -25 -487 -60 -849 -79 -1452 -79 -487 0 -695 7 -1070 40 -709 61
-1327 182 -1747 342 -54 20 -98 39 -98 42 0 3 40 32 88 64 160 109 425 310
582 441 176 148 456 418 563 544 40 46 86 100 102 118 l30 32 185 21 c275 30
514 48 806 61 l261 12 162 -139 162 -139 -246 -11 c-473 -22 -777 -68 -945
-141 -327 -143 185 -301 1040 -320 237 -5 655 8 715 23 14 3 51 -16 116 -60
239 -162 506 -320 734 -433 160 -80 285 -136 291 -131 2 3 20 58 40 124 102
339 280 711 490 1026 52 77 94 144 94 147 0 3 -67 43 -148 89 -477 267 -985
636 -1482 1076 -176 156 -558 533 -719 711 -567 623 -950 1218 -1077 1677 -37
136 -44 310 -16 404 52 171 175 251 402 261 401 18 1017 -234 1734 -711 497
-329 970 -720 1437 -1186 406 -405 720 -778 965 -1146 53 -79 81 -113 91 -110
8 4 16 6 19 6 2 0 -17 31 -41 69 -25 38 -45 74 -45 79 0 5 26 20 58 32 237 94
445 252 525 398 141 259 5 523 -375 731 -99 54 -128 88 -128 147 0 61 20 95
82 140 74 52 163 141 198 194 40 63 64 152 56 209 -3 25 -22 78 -41 117 -42
86 -138 182 -247 246 -130 76 -148 98 -148 177 0 42 4 48 85 130 108 108 140
169 140 261 -1 51 -7 77 -29 120 -36 68 -123 154 -205 200 -111 63 -139 86
-152 129 -20 66 -6 101 67 172 76 75 98 107 114 170 30 118 -57 234 -254 340
-91 49 -116 81 -116 151 0 45 4 52 64 117 85 93 110 146 110 236 1 55 -4 81
-23 120 -54 110 -205 217 -377 267 -68 20 -102 23 -239 23 -137 0 -171 -3
-239 -23 -174 -50 -322 -155 -377 -267 -18 -39 -24 -66 -24 -120 0 -89 25
-143 108 -232 55 -59 61 -69 64 -116 6 -73 -18 -107 -104 -151 -93 -46 -182
-114 -216 -164 -85 -122 -73 -204 49 -332 81 -85 98 -118 89 -170 -10 -52 -37
-83 -104 -119 -80 -42 -173 -114 -211 -161 -17 -21 -42 -64 -56 -95 -53 -116
-16 -224 121 -357 l80 -78 0 -59 c0 -52 -4 -64 -29 -90 -16 -16 -64 -50 -107
-75 -43 -25 -107 -73 -142 -106 -36 -33 -70 -60 -76 -60 -6 0 -76 46 -154 102
-562 403 -1116 697 -1548 822 -152 44 -231 57 -369 63 -203 8 -265 -10 -445
-130 -424 -281 -922 -877 -1051 -1257 -40 -116 -19 -316 56 -534 20 -61 41
-124 44 -140 7 -29 6 -28 -31 14 -123 141 -229 198 -437 237 -124 22 -416 22
-591 -1 -627 -83 -1348 -320 -2149 -705 -104 -50 -193 -91 -197 -91 -12 0 -11
69 2 132 19 91 72 186 153 276 125 138 177 256 179 407 1 153 -48 279 -163
410 -113 130 -160 247 -160 398 0 136 46 254 139 359 157 178 201 276 201 449
0 150 -45 262 -158 395 -38 45 -79 98 -92 118 -34 56 -60 152 -67 246 -10 155
39 283 161 418 42 46 89 107 105 135 34 60 67 168 76 248 l6 56 74 6 c116 9
205 59 261 149 44 69 54 135 54 355 l0 203 -73 0 c-136 0 -234 -56 -296 -170
l-36 -65 -4 -169 -3 -168 -22 54 c-31 76 -56 114 -137 210 -38 45 -81 106 -94
134 -96 203 -63 440 84 598 151 163 202 277 202 451 0 157 -46 272 -164 410
-113 131 -157 239 -157 383 0 151 45 257 169 396 123 137 171 254 171 414 0
97 -19 181 -60 262 -36 71 -106 160 -126 160 -30 0 -25 -30 16 -81 83 -105
120 -210 120 -339 0 -148 -46 -259 -164 -390 -126 -140 -176 -261 -176 -422 0
-153 47 -274 156 -398 121 -139 164 -241 164 -389 0 -162 -41 -260 -170 -405
-121 -136 -170 -256 -170 -416 0 -147 48 -266 159 -398 122 -144 162 -235 163
-378 1 -157 -44 -268 -159 -396 -95 -105 -121 -148 -168 -286 -4 -10 -21 0
-54 30 -55 49 -104 68 -180 68 l-51 0 0 -152 c0 -174 9 -206 76 -270 51 -49
97 -66 184 -72 l71 -4 41 -59 c22 -32 63 -82 89 -111 183 -201 182 -521 -2
-727 -88 -98 -117 -139 -149 -207 -63 -136 -73 -279 -28 -413 28 -86 68 -150
143 -235 115 -130 164 -270 152 -429 -11 -140 -53 -227 -171 -360 -111 -125
-157 -229 -172 -390 l-7 -72 -61 -31 c-34 -17 -125 -66 -203 -109 -78 -44
-148 -79 -156 -79 -25 0 -64 104 -77 205 -16 130 17 277 83 369 18 24 61 78
98 119 150 173 195 377 126 576 -29 83 -69 147 -151 241 -136 155 -178 356
-115 544 29 85 60 134 145 228 186 206 222 437 104 672 -23 45 -68 112 -100
149 -112 127 -151 224 -153 372 -1 158 37 249 165 397 48 56 98 125 117 164
62 127 76 263 41 398 -26 103 -66 176 -150 271 -79 91 -125 175 -145 272 -18
86 -18 130 0 216 21 101 67 184 157 284 49 54 93 115 114 158 111 226 73 467
-105 669 -39 44 -84 108 -101 142 -103 210 -69 432 95 614 90 100 130 163 160
254 51 151 41 299 -30 442 -32 66 -107 164 -125 164 -4 0 -13 -6 -19 -14z
m3159 -6876 c373 -33 565 -168 578 -406 19 -356 -389 -900 -1105 -1472 -778
-620 -1850 -1204 -2823 -1537 -390 -133 -811 -236 -1110 -270 -262 -30 -556
-17 -705 32 -409 131 -433 493 -67 989 345 468 954 980 1741 1463 90 56 167
101 171 101 3 0 35 -33 69 -72 56 -65 131 -193 131 -224 0 -6 -46 -42 -103
-79 -162 -108 -294 -212 -398 -315 -150 -148 -193 -245 -133 -301 22 -21 37
-24 112 -27 390 -15 1360 443 1886 889 100 85 198 194 230 256 21 43 21 106
-1 126 -102 90 -513 -8 -1006 -240 -114 -55 -118 -56 -137 -38 -56 51 -139
219 -140 283 0 20 25 35 188 115 832 411 1693 682 2303 726 165 12 192 12 319
1z m-2846 -911 c21 -78 54 -142 105 -207 l41 -52 -59 -29 c-33 -17 -114 -62
-181 -101 -67 -38 -126 -70 -130 -70 -5 0 -11 13 -15 29 -9 43 -66 133 -130
205 l-56 64 33 20 c52 32 362 202 369 202 3 0 13 -27 23 -61z m4129 -391 c225
-280 521 -598 807 -867 85 -80 156 -148 158 -152 1 -3 -80 -9 -180 -13 -237
-9 -544 -31 -786 -57 -107 -11 -196 -19 -198 -16 -3 3 20 43 51 91 72 111 147
270 175 371 19 67 22 96 17 180 -6 117 -46 280 -106 440 -48 124 -61 165 -56
165 2 0 55 -64 118 -142z"/>
<path d="M22758 14951 l-257 -169 15 -54 c52 -197 79 -637 55 -931 -46 -566
-203 -1108 -482 -1667 -86 -170 -262 -480 -321 -563 -11 -16 -18 -30 -16 -32
3 -3 54 38 114 91 378 330 841 673 1179 871 93 55 100 61 116 107 19 50 59
247 84 406 97 624 59 1303 -100 1797 -48 150 -113 313 -124 313 -3 0 -122 -76
-263 -169z"/>
<path d="M18012 12798 c-35 -38 -52 -81 -52 -132 0 -49 41 -152 158 -400 l37
-79 62 69 c52 59 178 175 262 242 l25 19 -55 18 c-124 41 -250 123 -349 227
-31 32 -58 58 -61 58 -3 0 -15 -10 -27 -22z"/>
<path d="M23579 10731 c-95 -21 -219 -75 -219 -95 0 -14 112 -68 177 -85 151
-40 331 -32 477 19 l81 29 21 -20 c25 -23 91 -42 99 -28 3 5 -12 25 -34 46
l-40 38 47 49 47 48 -50 -5 c-37 -4 -55 -12 -72 -31 -22 -25 -24 -26 -52 -12
-111 58 -334 80 -482 47z"/>
<path d="M22520 10392 c-72 -21 -150 -58 -150 -71 0 -31 208 -91 315 -91 67 0
198 26 239 47 27 14 32 13 66 -6 21 -12 48 -21 61 -21 22 0 21 2 -11 35 l-34
35 32 33 c18 18 32 36 32 40 0 16 -51 5 -77 -17 l-29 -25 -70 26 c-94 35 -276
42 -374 15z"/>
<path d="M26921 10315 c-111 -20 -231 -70 -231 -96 0 -6 28 -23 63 -38 160
-73 363 -81 536 -22 l93 33 22 -21 c12 -11 37 -24 55 -27 32 -7 33 -6 22 15
-7 12 -21 27 -31 34 -29 17 -25 36 17 79 37 38 37 38 11 38 -14 0 -42 -11 -62
-25 -45 -31 -43 -31 -126 -1 -69 25 -193 47 -258 45 -20 0 -70 -7 -111 -14z"/>
<path d="M26220 9691 c-36 -10 -85 -28 -109 -40 -39 -20 -42 -24 -29 -38 35
-34 150 -66 262 -71 116 -5 187 6 269 40 l48 21 22 -20 c25 -23 67 -39 67 -25
0 4 -11 19 -25 32 -32 30 -32 37 7 77 18 18 27 33 21 33 -21 0 -60 -18 -78
-36 -15 -15 -21 -16 -49 -4 -123 51 -286 64 -406 31z"/>
<path d="M8909 9331 c-39 -32 -31 -103 24 -215 244 -490 1240 -1349 1666
-1437 372 -77 -3 534 -684 1116 -381 326 -767 555 -936 555 -31 0 -55 -6 -70
-19z"/>
<path d="M13295 7815 c-1163 -116 -2210 -745 -2862 -1720 -145 -218 -313 -545
-403 -788 -238 -641 -303 -1341 -189 -2022 131 -780 510 -1515 1074 -2080 83
-83 191 -185 240 -226 519 -436 1123 -726 1775 -853 910 -178 1873 -20 2670
437 878 504 1527 1325 1809 2291 48 164 103 426 128 616 23 169 26 733 5 900
-72 588 -239 1081 -533 1575 -80 134 -218 333 -305 440 l-31 38 -184 -135
c-455 -333 -861 -594 -1289 -828 -142 -78 -496 -251 -592 -290 -32 -13 -58
-26 -58 -30 0 -3 22 -23 49 -43 27 -21 80 -70 118 -110 277 -292 414 -634 415
-1032 0 -172 -20 -300 -72 -456 -166 -502 -562 -863 -1080 -986 -156 -36 -400
-43 -565 -15 -319 55 -569 185 -801 416 -218 218 -347 455 -411 756 -26 122
-26 459 1 580 59 272 186 518 369 715 87 94 297 264 297 241 0 -9 -110 -134
-218 -247 -56 -59 -102 -113 -102 -122 0 -19 34 -24 245 -37 472 -30 1040 70
1582 277 l93 36 -17 26 c-9 14 -32 51 -50 81 -84 138 -297 388 -444 521 -224
202 -490 383 -647 440 -18 6 -31 15 -30 19 2 5 82 63 178 130 325 228 741 546
1100 840 197 162 474 399 478 410 3 8 -35 23 -203 76 -241 77 -522 134 -789
159 -192 18 -567 18 -751 0z"/>
<path d="M20198 7051 c-502 -109 -1375 -618 -1814 -1057 -183 -183 -254 -324
-195 -383 92 -92 411 -14 866 209 750 368 1489 982 1419 1179 -24 66 -125 85
-276 52z"/>
</g>
</svg>
